<svg width="168" height="168" viewBox="0 0 168 168" fill="none" xmlns="http://www.w3.org/2000/svg">
<g clip-path="url(#clip0_1_425)">
<path d="M32.8059 117.992L37.9515 123.104L24.8788 132.042L23.5868 130.194C22.7037 128.93 22.8062 127.237 23.8314 126.141L28.1149 121.568L31.7314 120.389L32.8047 117.993L32.8059 117.992Z" fill="white" stroke="#0C0C0C" stroke-width="0.5" stroke-miterlimit="10"/>
<path d="M24.139 130.982L36.8905 122.049" stroke="#0C0C0C" stroke-width="0.5" stroke-linecap="round" stroke-linejoin="round"/>
<path d="M133.833 42.5977H29.7045C27.2719 42.5977 25.3 44.5697 25.3 47.0022V106.95C25.3 109.382 27.2719 111.354 29.7045 111.354H133.833C136.265 111.354 138.237 109.382 138.237 106.95V47.0022C138.237 44.5697 136.265 42.5977 133.833 42.5977Z" fill="#0C0C0C"/>
<path d="M30.4962 44.0354H133.04C135.256 44.0354 137.055 45.835 137.055 48.0509V106.291C137.055 108.507 135.256 110.307 133.04 110.307H30.4962C28.2804 110.307 26.4808 108.507 26.4808 106.291V48.0521C26.4808 45.8363 28.2804 44.0367 30.4962 44.0367V44.0354Z" fill="white"/>
<path d="M28.3594 56.1485C28.6027 57.0402 28.4286 57.8653 27.9716 57.9888C27.5146 58.1136 26.9464 57.491 26.7031 56.5993C26.4598 55.7075 26.6339 54.8824 27.0909 54.7589C27.5479 54.6342 28.1161 55.2567 28.3594 56.1485Z" fill="white"/>
<path d="M35.2169 56.1954C34.9736 57.0872 35.1478 57.9122 35.6048 58.0357C36.0618 58.1605 36.6299 57.538 36.8732 56.6462C37.1166 55.7544 36.9424 54.9294 36.4854 54.8059C36.0284 54.6811 35.4602 55.3036 35.2169 56.1954Z" fill="white"/>
<path d="M75.0144 130.195H88.5231L87.0854 82.6224H76.4521L75.0144 130.195Z" fill="#0C0C0C"/>
<path d="M55.7239 132.177H107.812C108.755 132.177 109.519 131.413 109.519 130.471C109.519 129.528 108.755 128.764 107.812 128.764H55.7239C54.7815 128.764 54.017 129.528 54.017 130.471C54.017 131.413 54.7815 132.177 55.7239 132.177Z" fill="#0C0C0C"/>
<path d="M130.135 49.1576H131.751C132.529 49.1576 133.16 49.7887 133.16 50.5669V52.1824C133.16 52.9593 132.529 53.5905 131.752 53.5905H130.136C129.359 53.5905 128.728 52.9593 128.728 52.1824V50.5669C128.728 49.7899 129.359 49.1588 130.136 49.1588L130.135 49.1576Z" fill="#F3F5FF"/>
<path d="M126.18 49.1576H100.379C99.6172 49.1576 98.9995 49.7753 98.9995 50.5372V52.1207C98.9995 52.8826 99.6172 53.5003 100.379 53.5003H126.18C126.942 53.5003 127.56 52.8826 127.56 52.1207V50.5372C127.56 49.7753 126.942 49.1576 126.18 49.1576Z" fill="#F3F5FF"/>
<path d="M130.135 54.796H131.751C132.529 54.796 133.16 55.4271 133.16 56.2053V57.8208C133.16 58.599 132.529 59.2301 131.751 59.2301H130.135C129.358 59.2301 128.727 58.599 128.727 57.8221V56.2065C128.727 55.4296 129.358 54.7984 130.135 54.7984V54.796Z" fill="#F3F5FF"/>
<path d="M126.18 54.796H100.379C99.6172 54.796 98.9995 55.4137 98.9995 56.1756V57.7591C98.9995 58.521 99.6172 59.1387 100.379 59.1387H126.18C126.942 59.1387 127.56 58.521 127.56 57.7591V56.1756C127.56 55.4137 126.942 54.796 126.18 54.796Z" fill="#F3F5FF"/>
<path d="M130.135 66.074H131.751C132.529 66.074 133.16 66.7052 133.16 67.4833V69.0989C133.16 69.877 132.529 70.5082 131.751 70.5082H130.135C129.357 70.5082 128.726 69.877 128.726 69.0989V67.4833C128.726 66.7064 129.357 66.0753 130.134 66.0753L130.135 66.074Z" fill="#F3F5FF"/>
<path d="M126.18 66.074H100.379C99.6172 66.074 98.9995 66.6917 98.9995 67.4537V69.0371C98.9995 69.7991 99.6172 70.4168 100.379 70.4168H126.18C126.942 70.4168 127.56 69.7991 127.56 69.0371V67.4537C127.56 66.6917 126.942 66.074 126.18 66.074Z" fill="#F3F5FF"/>
<path d="M130.135 60.4344H131.751C132.529 60.4344 133.16 61.0655 133.16 61.8437V63.4592C133.16 64.2374 132.529 64.8685 131.751 64.8685H130.135C129.358 64.8685 128.727 64.2374 128.727 63.4605V61.8449C128.727 61.068 129.358 60.4369 130.135 60.4369V60.4344Z" fill="#F3F5FF"/>
<path d="M126.18 60.4344H100.379C99.6172 60.4344 98.9995 61.0521 98.9995 61.814V63.3975C98.9995 64.1594 99.6172 64.7771 100.379 64.7771H126.18C126.942 64.7771 127.56 64.1594 127.56 63.3975V61.814C127.56 61.0521 126.942 60.4344 126.18 60.4344Z" fill="#F3F5FF"/>
<path d="M125.688 66.0012H150.785C153.663 66.0012 156 68.338 156 71.2159V126.963C156 129.841 153.663 132.177 150.785 132.177H125.688C122.811 132.177 120.474 129.841 120.474 126.963V71.2159C120.474 68.338 122.811 66.0012 125.688 66.0012Z" fill="#0C0C0C"/>
<path d="M121.674 70.8071V127.635C121.674 128.981 122.625 130.073 123.799 130.073H152.674C153.847 130.073 154.798 128.981 154.798 127.635V70.8071C154.798 69.4608 153.847 68.3689 152.674 68.3689H123.799C122.625 68.3689 121.674 69.4608 121.674 70.8071Z" fill="white"/>
<path d="M49.8138 61.798C56.3378 61.4855 68.3335 59.4191 79.6721 49.5652C80.3885 48.9426 81.5013 48.9426 82.2177 49.5652C93.555 59.4179 105.551 61.4843 112.076 61.798C114.917 61.9338 117.16 64.0743 117.215 66.7089C117.959 101.59 104.003 124.211 80.9455 131.142C57.8879 124.211 43.9321 101.59 44.6756 66.7089C44.7312 64.0743 46.9742 61.9351 49.815 61.798H49.8138Z" fill="white"/>
<path d="M80.8998 131.289C75.1329 129.555 69.8996 126.826 65.3494 123.176C60.7818 119.512 56.8788 114.905 53.7514 109.484C50.5784 103.985 48.1847 97.6146 46.6358 90.5508C45.0499 83.3153 44.3384 75.2931 44.5212 66.7064C44.5496 65.3922 45.1079 64.1484 46.0948 63.2073C47.078 62.2686 48.3971 61.714 49.8076 61.6461C56.0266 61.3484 68.1618 59.3672 79.572 49.4515C80.3415 48.7821 81.5482 48.7821 82.319 49.4515C93.7292 59.3672 105.866 61.3484 112.083 61.6461C113.495 61.714 114.813 62.2686 115.796 63.2073C116.782 64.1497 117.341 65.3922 117.369 66.7064C117.551 75.2931 116.84 83.3166 115.254 90.5508C113.705 97.6146 111.311 103.985 108.138 109.484C105.01 114.907 101.108 119.512 96.5404 123.176C91.9889 126.826 86.7568 129.556 80.9455 131.296C80.9307 131.296 80.9159 131.293 80.901 131.289H80.8998Z" fill="white" stroke="#0C0C0C" stroke-width="0.5" stroke-miterlimit="10"/>
<path d="M52.4866 66.9164C56.5515 66.5693 68.4768 64.7413 79.6807 55.1258C80.3946 54.5131 81.4951 54.5131 82.2078 55.1258C93.413 64.7426 105.338 66.5693 109.402 66.9164C110.239 66.988 110.893 67.6229 110.929 68.401C112.356 98.8843 100.665 118.503 80.943 124.432C61.2216 118.503 49.5297 98.8843 50.9575 68.401C50.9946 67.6229 51.6468 66.988 52.4842 66.9164H52.4866Z" fill="#F3F5FF"/>
<path d="M77.1882 68.7716H84.7436C87.4003 68.7716 89.5544 70.9257 89.5544 73.5824V83.5611C89.5544 85.4571 88.4576 87.0961 86.8643 87.8804C87.0829 87.5049 87.2077 87.0689 87.2077 86.6033V73.7257C87.2077 72.3201 86.0689 71.1813 84.6633 71.1813H77.2673C75.8617 71.1813 74.7229 72.3201 74.7229 73.7257V86.6033C74.7229 87.0689 74.8476 87.5049 75.0662 87.8804C73.4729 87.0961 72.3761 85.4571 72.3761 83.5611V73.5824C72.3761 70.9257 74.5302 68.7716 77.187 68.7716H77.1882Z" fill="white"/>
<path d="M86.7519 87.9854C86.7062 87.936 86.6975 87.8619 86.7309 87.8038C86.9421 87.4407 87.0533 87.0257 87.0533 86.6033V73.7257C87.0533 72.4078 85.9812 71.3345 84.662 71.3345H77.266C75.9481 71.3345 74.8748 72.4066 74.8748 73.7257V86.6033C74.8748 87.0257 74.986 87.4407 75.1972 87.8038C75.2317 87.8619 75.2231 87.936 75.1762 87.9854C75.1305 88.0348 75.0564 88.0484 74.9958 88.0188C73.2839 87.1764 72.2205 85.4682 72.2205 83.5624V73.5837C72.2205 70.8466 74.4474 68.6197 77.1845 68.6197H84.7398C87.4769 68.6197 89.7039 70.8466 89.7039 73.5837V83.5624C89.7039 85.4694 88.6404 87.1764 86.9285 88.0188C86.9075 88.0299 86.8841 88.0348 86.8606 88.0348C86.8186 88.0348 86.7778 88.0175 86.7482 87.9867L86.7519 87.9854Z" fill="white" stroke="#0C0C0C" stroke-width="0.5" stroke-miterlimit="10"/>
<path d="M89.9385 80.3411H71.9512C70.1476 80.3411 68.6855 81.8032 68.6855 83.6068V103.327C68.6855 105.131 70.1476 106.593 71.9512 106.593H89.9385C91.7421 106.593 93.2043 105.131 93.2043 103.327V83.6068C93.2043 81.8032 91.7421 80.3411 89.9385 80.3411Z" fill="white" stroke="#0C0C0C" stroke-width="0.5" stroke-miterlimit="10"/>
<path d="M36.8461 89.806C36.9202 89.806 36.9856 89.7529 36.998 89.6776C37.0116 89.5936 36.9548 89.5145 36.872 89.5009C36.851 89.4972 35.2009 89.1996 34.3647 87.3592C34.3289 87.2826 34.2387 87.248 34.1609 87.2826C34.0843 87.3172 34.0497 87.4086 34.0843 87.4864C34.9934 89.4836 36.7473 89.7912 36.8214 89.8035C36.83 89.8048 36.8387 89.806 36.8461 89.806Z" fill="white"/>
<path d="M27.0699 131.528C27.1626 131.523 27.228 131.451 27.2231 131.366C27.2231 131.362 27.2182 131.277 27.1996 131.135C27.1885 131.051 27.1107 130.992 27.0267 131.003C26.9427 131.014 26.8834 131.092 26.8945 131.176C26.9118 131.305 26.9155 131.382 26.9155 131.383C26.9205 131.465 26.9872 131.529 27.0687 131.529L27.0699 131.528Z" fill="#0C0C0C"/>
<path d="M29.0449 111.326L34.3437 119.778L32.155 122.961L29.1116 122.831L22.6654 113.361L29.0449 111.326Z" fill="white" stroke="#0C0C0C" stroke-width="0.5" stroke-miterlimit="10"/>
<path d="M25.8867 118.093L31.6029 115.407L34.3437 119.778L32.155 122.961L29.1116 122.831L25.8867 118.093Z" fill="white" stroke="#0C0C0C" stroke-width="0.5" stroke-miterlimit="10"/>
<path d="M29.602 121.142L28.7176 119.234C28.4484 118.653 27.6727 118.548 27.2873 119.039L26.2165 120.407C25.8719 120.848 26.051 121.51 26.5759 121.732L28.9832 122.75L29.6007 121.142H29.602Z" fill="white" stroke="#0C0C0C" stroke-width="0.5" stroke-miterlimit="10"/>
<path d="M34.7834 116.904L33.6359 126.973L29.9614 128.387L27.6838 126.549L28.5768 114.978L34.7834 116.904Z" fill="white" stroke="#0C0C0C" stroke-width="0.5" stroke-miterlimit="10"/>
<path d="M28.1445 120.591L34.277 121.345L33.6359 126.973L29.9614 128.387L27.6838 126.549L28.1445 120.591Z" fill="white" stroke="#0C0C0C" stroke-width="0.5" stroke-miterlimit="10"/>
<path d="M27.837 123.914L25.9521 132.177H38.6926L38.8322 130.391C39.0088 128.127 37.455 126.427 35.3367 126.072L33.2283 126.077L32.0933 126.341C31.1163 126.569 30.0911 126.265 29.3957 125.54L27.837 123.914Z" fill="white" stroke="#0C0C0C" stroke-width="0.5" stroke-miterlimit="10"/>
<path d="M33.4655 126.043L34.5759 124.339C34.9143 123.819 34.6166 123.104 34.0262 123.019L32.386 122.783C31.8573 122.706 31.4077 123.189 31.488 123.749L31.8536 126.313L33.4643 126.043H33.4655Z" fill="white" stroke="#0C0C0C" stroke-width="0.5" stroke-miterlimit="10"/>
<path d="M20.5361 67.8514C20.5361 67.8514 11.0465 90.1457 12.0778 97.8752C12.8288 103.496 23.7412 117.334 23.7412 117.334L32.3428 113.395L23.3942 96.6586L27.774 78.8441L29.4278 78.7836L26.1708 118.218L36.1421 119.192L40.2884 69.6164L29.3463 64.4844L20.5348 67.8502L20.5361 67.8514Z" fill="#10069F"/>
<path d="M35.5208 41.496C35.5208 41.496 36.4187 40.3164 35.9691 37.7943C35.7925 36.8025 34.7599 36.8902 34.7599 36.8902C34.7599 36.8902 33.9447 35.881 32.8739 35.7736C31.803 35.6661 31.6881 36.301 31.6881 36.301C31.6881 36.301 30.1998 35.9663 29.2438 36.6332C28.2878 37.299 28.9399 38.8688 28.9399 38.8688C28.9399 38.8688 28.6274 40.7611 29.1227 41.4898C29.4822 42.0185 35.522 41.4972 35.522 41.4972L35.5208 41.496Z" fill="#0C0C0C"/>
<path d="M33.5523 44.6504L30.4812 44.3417L30.1725 47.4129L33.2436 47.7216L33.5523 44.6504Z" fill="white" stroke="#0C0C0C" stroke-width="0.5" stroke-miterlimit="10"/>
<path d="M34.8995 46.5798C34.8995 46.5798 39.0002 46.9714 42.0954 48.2127C45.1894 49.454 45.3352 60.7716 44.977 64.4869C44.5163 69.273 44.7411 72.2658 37.1487 70.3686C30.9606 68.8222 29.3549 67.0757 29.3549 67.0757C29.3549 67.0757 23.7758 71.4938 16.2192 68.7012C8.93562 66.0098 15.4176 53.404 17.2518 51.45C20.331 48.1694 21.513 46.7009 24.1476 46.1339C26.0781 45.7189 30.2282 45.898 30.2282 45.898L34.9007 46.5774L34.8995 46.5798Z" fill="white" stroke="#0C0C0C" stroke-width="0.5" stroke-miterlimit="10"/>
<path d="M31.8722 46.3834L30.0577 44.7605L28.1457 45.8338L29.7008 48.7388L31.8722 46.3834Z" fill="white" stroke="#0C0C0C" stroke-width="0.5" stroke-miterlimit="10"/>
<path d="M31.8722 46.3834L33.9744 45.1545L35.6344 46.5872L33.5322 49.1242L31.8722 46.3834Z" fill="white" stroke="#0C0C0C" stroke-width="0.5" stroke-miterlimit="10"/>
<path d="M36.168 40.0311C35.9926 39.9607 35.8061 39.9545 35.6295 39.999C35.6258 37.4608 34.1979 37.315 32.6207 37.1557C30.9829 36.9914 29.4686 37.6028 29.2648 40.0731C29.0733 39.9965 28.8634 39.9829 28.662 40.0509C28.1519 40.2226 27.8901 40.8426 28.0741 41.4355C28.2594 42.0283 28.8226 42.3692 29.3327 42.1975C29.3661 42.1864 29.3982 42.1728 29.4291 42.158C29.7774 43.4734 30.6074 44.4492 31.8746 44.5764C33.7138 44.7753 34.8365 43.6204 35.3269 42.1123C35.3429 42.1197 35.359 42.1284 35.375 42.1358C35.874 42.3371 36.4558 42.0283 36.6744 41.4466C36.893 40.8648 36.6657 40.2312 36.168 40.0311Z" fill="white" stroke="#0C0C0C" stroke-width="0.5" stroke-miterlimit="10"/>
<path d="M33.3605 42.0518C32.8603 41.89 32.339 41.6615 31.6202 42.0802C30.9013 42.4989 29.8268 41.7158 29.2883 41.3552C29.0622 41.2045 29.2549 43.4055 29.975 44.2874C30.9446 45.4744 32.5416 45.6881 33.7162 44.9124C34.8908 44.138 35.4763 42.9535 35.5924 41.7961C35.7085 40.6388 35.1947 41.8529 34.4857 42.0469C34.088 42.1556 33.752 42.179 33.3593 42.0518H33.3605Z" fill="#0C0C0C"/>
<path d="M33.2617 48.6388L32.2884 49.8147L30.9792 49.6183L30.0849 48.3313L31.8228 46.3093L33.2617 48.6388Z" fill="#0C0C0C"/>
<path d="M31.0631 49.0106L28.6806 62.2192L30.2788 63.8298L31.9636 62.4822L32.3205 49.207L31.0631 49.0106Z" fill="#0C0C0C"/>
<path d="M32.6219 37.0643C31.3719 36.9383 30.1899 37.2767 29.5575 38.5477C30.369 38.9837 31.1212 37.8597 31.1212 37.8597C31.2002 39.4494 34.7599 38.1006 34.7599 38.1006C35.3034 38.6342 35.585 39.3715 35.7295 39.9323C35.6505 37.3731 34.2078 37.2249 32.6219 37.0655V37.0643Z" fill="#0C0C0C"/>
<path d="M28.2063 63.9286C28.2063 63.9286 25.6421 62.3773 24.2131 61.7399C22.784 61.1014 22.8593 60.6715 23.0841 60.2293C23.4411 59.5278 24.8245 60.0997 25.6804 60.4813C26.5364 60.863 26.8019 60.5245 26.8019 60.5245L29.56 63.1529L28.2063 63.9298V63.9286Z" fill="white"/>
<path d="M30.2195 62.2229C30.2195 62.2229 30.1874 62.0969 30.096 61.8943L30.2974 61.6349C30.2974 61.6349 30.1294 61.5435 29.8317 61.4077C29.2092 60.4282 27.669 58.8781 24.0624 58.5854C21.4229 58.3717 20.147 59.5142 19.7122 60.0861C19.6739 60.1367 19.6492 60.1935 19.6381 60.2528C19.4837 60.401 19.3651 60.5394 19.2799 60.6518C19.1675 60.8 19.1675 61.005 19.2799 61.152C19.4627 61.3904 19.7863 61.4657 20.0556 61.3348C20.1334 61.2965 20.2236 61.257 20.3224 61.2162C20.2977 61.2508 20.2742 61.2842 20.2532 61.3163C20.1198 61.5213 20.1692 61.7943 20.3631 61.9425C20.52 62.0623 20.7337 62.0685 20.8967 61.9585C20.9054 61.9524 20.9165 61.9462 20.9264 61.94C20.9226 62.0487 20.9696 62.1574 21.0622 62.2278C21.2673 62.3847 21.5476 62.3946 21.7662 62.2575C22.0219 62.0956 22.4073 61.7671 23.0125 61.7128C25.3037 61.509 25.6372 63.1505 27.1774 63.8384C29.6316 64.934 29.3068 62.9133 29.3068 62.9133L29.6501 62.4699L30.2195 62.2229Z" fill="white" stroke="#0C0C0C" stroke-width="0.5" stroke-miterlimit="10"/>
<path d="M29.4686 67.1634C29.4686 67.1634 27.8938 65.7776 27.2182 64.8834C27.2182 64.8834 27.5776 61.2002 30.3937 59.986C30.3937 59.986 36.0828 59.529 44.3668 64.4856L29.4698 67.1634H29.4686Z" fill="white"/>
<path d="M40.4465 61.3138C40.3922 61.1903 40.3131 61.0334 40.2032 60.8593C40.2056 60.8012 40.197 60.7419 40.1723 60.6864C39.8969 60.054 38.968 58.6953 36.4558 58.2914C31.362 57.4725 29.8774 60.2775 29.8774 60.2775H30.6346L35.5504 60.921C35.9024 61.1211 36.3038 61.3076 36.7201 61.4497C37.2722 61.6386 37.5575 62.0339 37.7588 62.2426C37.9305 62.4217 38.1948 62.4761 38.4221 62.376C38.5234 62.3316 38.5926 62.2414 38.6136 62.1389C38.621 62.1463 38.6296 62.1562 38.637 62.1636C38.7642 62.3032 38.9656 62.3464 39.1397 62.271C39.3546 62.1772 39.4633 61.9326 39.3855 61.7115C39.3732 61.6769 39.3596 61.6399 39.3435 61.6016C39.4263 61.6621 39.5016 61.7202 39.5658 61.7733C39.7882 61.9561 40.1068 61.961 40.3316 61.7795C40.4712 61.6671 40.5181 61.4768 40.4465 61.3126V61.3138Z" fill="white" stroke="#0C0C0C" stroke-width="0.5" stroke-miterlimit="10"/>
<path d="M35.6122 39.5383L35.1873 41.7245L35.5936 41.7974L36.0729 39.6766L35.6122 39.5383Z" fill="#0C0C0C"/>
<path d="M29.3339 42.1988L29.6415 42.0963L29.3364 39.5383H28.8646L29.308 42.5977" fill="#0C0C0C"/>
<path d="M22.7927 46.5539L22.9755 52.8272" stroke="#0C0C0C" stroke-width="0.5" stroke-linecap="round" stroke-linejoin="round"/>
<path d="M26.1806 131.178L38.7618 131.296" stroke="#0C0C0C" stroke-width="0.5" stroke-linecap="round" stroke-linejoin="round"/>
<path d="M32.1525 126.727L37.0091 124.945L33.6162 127.039L37.0178 125.944" stroke="#0C0C0C" stroke-width="0.5" stroke-linecap="round" stroke-linejoin="round"/>
<path d="M27.1243 124.426L25.5939 123.875L27.9679 122.541L25.5186 123.225" stroke="#0C0C0C" stroke-width="0.5" stroke-linecap="round" stroke-linejoin="round"/>
<path d="M27.5245 101.845L26.2609 117.143" stroke="#0C0C0C" stroke-width="0.5" stroke-miterlimit="10"/>
<path d="M26.0435 79.0096L30.9396 78.6749" stroke="#0C0C0C" stroke-width="0.5" stroke-linecap="round" stroke-linejoin="round"/>
<path d="M28.4694 67.6612L27.6838 74.1877" stroke="#0C0C0C" stroke-width="0.5" stroke-linecap="round" stroke-linejoin="round"/>
<path d="M29.9021 67.6612L29.1166 74.1877" stroke="#0C0C0C" stroke-width="0.5" stroke-linecap="round" stroke-linejoin="round"/>
<path d="M29.7218 67.3895C29.7218 67.3895 27.9642 65.8863 27.2182 64.8834C27.2182 64.8834 27.6801 61.6535 29.8774 60.2788" stroke="#0C0C0C" stroke-width="0.5" stroke-linecap="round" stroke-linejoin="round"/>
<path d="M39.1397 62.2723C39.1397 62.2723 40.3143 62.523 42.1102 63.6779" stroke="#0C0C0C" stroke-width="0.5" stroke-linecap="round" stroke-linejoin="round"/>
<path d="M20.9264 61.9412C20.9264 61.9412 21.4229 60.1355 24.5527 60.6209" stroke="#0C0C0C" stroke-width="0.5" stroke-linecap="round" stroke-linejoin="round"/>
<path d="M20.3224 61.2175C20.3224 61.2175 21.6786 58.93 25.0406 60.1133" stroke="#0C0C0C" stroke-width="0.5" stroke-linecap="round" stroke-linejoin="round"/>
<path d="M19.6369 60.2528C19.6369 60.2528 21.1153 58.2037 25.2012 59.5191" stroke="#0C0C0C" stroke-width="0.5" stroke-linecap="round" stroke-linejoin="round"/>
<path d="M15.5115 62.1142C15.5115 62.1142 16.3255 60.9729 19.2095 60.795" stroke="#0C0C0C" stroke-width="0.5" stroke-linecap="round" stroke-linejoin="round"/>
<path d="M16.2057 60.7296C16.2057 60.7296 17.5112 60.1577 19.2787 60.6518" stroke="#0C0C0C" stroke-width="0.5" stroke-linecap="round" stroke-linejoin="round"/>
<path d="M22.4616 55.9286L22.3764 58.536" stroke="#0C0C0C" stroke-width="0.5" stroke-linecap="round" stroke-linejoin="round"/>
<path d="M42.6203 48.5425L40.4811 54.4699" stroke="#0C0C0C" stroke-width="0.5" stroke-linecap="round" stroke-linejoin="round"/>
<path d="M40.2032 60.8593C40.2032 60.8593 39.1397 58.7707 35.3021 58.8287" stroke="#0C0C0C" stroke-width="0.5" stroke-linecap="round" stroke-linejoin="round"/>
<path d="M39.3855 61.7128C39.3855 61.7128 38.7507 59.1783 35.1885 59.4932" stroke="#0C0C0C" stroke-width="0.5" stroke-linecap="round" stroke-linejoin="round"/>
<path d="M38.637 62.1648C38.637 62.1648 38.2862 60.0527 35.3021 60.0935" stroke="#0C0C0C" stroke-width="0.5" stroke-linecap="round" stroke-linejoin="round"/>
<path d="M40.0698 56.9723L39.6177 59.844" stroke="#0C0C0C" stroke-width="0.5" stroke-linecap="round" stroke-linejoin="round"/>
<path d="M84.3286 87.0146H77.56C76.8383 87.0146 76.2532 87.5997 76.2532 88.3214V96.64C76.2532 97.3618 76.8383 97.9468 77.56 97.9468H84.3286C85.0503 97.9468 85.6353 97.3618 85.6353 96.64V88.3214C85.6353 87.5997 85.0503 87.0146 84.3286 87.0146Z" fill="white" stroke="#0C0C0C" stroke-width="0.5" stroke-miterlimit="10"/>
<path d="M78.8309 91.1424C78.8309 89.9752 79.7771 89.0291 80.9443 89.0291C82.1115 89.0291 83.0576 89.9752 83.0576 91.1424C83.0576 91.9416 82.6129 92.6382 81.9583 92.9964V95.9323H79.929V92.9964C79.2744 92.6369 78.8297 91.9416 78.8297 91.1424H78.8309Z" fill="#0C0C0C"/>
</g>
<defs>
<clipPath id="clip0_1_425">
<rect width="144" height="144" fill="white" transform="translate(12 12)"/>
</clipPath>
</defs>
</svg>
