<?xml version="1.0" encoding="UTF-8"?>
<svg xmlns="http://www.w3.org/2000/svg" xmlns:xlink="http://www.w3.org/1999/xlink" width="24px" height="32px" viewBox="0 0 24 24" version="1.1">
<g id="surface1">
<path style="fill-rule:nonzero;fill:rgb(10.588235%,0%,53.333336%);fill-opacity:1;stroke-width:1;stroke-linecap:butt;stroke-linejoin:miter;stroke:rgb(10.588235%,0%,53.333336%);stroke-opacity:1;stroke-miterlimit:4;" d="M 16.005208 4.796875 C 16.203125 4.796875 16.40625 4.838542 16.614583 4.921875 C 16.8125 5 16.994792 5.119792 17.161458 5.286458 L 17.161458 5.291667 L 26.708333 14.833333 L 26.708333 14.838542 L 26.713542 14.838542 C 26.880208 15.005208 27 15.182292 27.078125 15.380208 C 27.161458 15.588542 27.197917 15.796875 27.197917 16 C 27.197917 16.203125 27.161458 16.40625 27.078125 16.614583 C 27 16.807292 26.880208 16.989583 26.708333 17.161458 L 17.161458 26.708333 C 17 26.869792 16.817708 26.994792 16.614583 27.072917 C 16.40625 27.161458 16.203125 27.197917 16 27.197917 C 15.796875 27.197917 15.59375 27.161458 15.390625 27.078125 C 15.192708 26.994792 15.005208 26.869792 14.833333 26.703125 L 5.291667 17.161458 C 5.125 16.989583 5.005208 16.807292 4.921875 16.609375 C 4.838542 16.40625 4.802083 16.203125 4.802083 16 C 4.802083 15.796875 4.838542 15.59375 4.927083 15.385417 C 5.005208 15.1875 5.125 15.005208 5.291667 14.838542 L 14.838542 5.291667 C 15.010417 5.119792 15.192708 5 15.385417 4.921875 C 15.59375 4.838542 15.796875 4.802083 16.005208 4.796875 Z M 16 5.182292 C 15.65625 5.182292 15.3125 5.276042 15.057292 5.536458 L 5.536458 15.052083 C 5.28125 15.3125 5.182292 15.651042 5.182292 16 C 5.182292 16.34375 5.276042 16.682292 5.536458 16.942708 L 15.057292 26.463542 C 15.3125 26.71875 15.65625 26.8125 16 26.8125 C 16.34375 26.8125 16.682292 26.71875 16.942708 26.463542 L 26.463542 16.942708 C 26.71875 16.682292 26.817708 16.34375 26.817708 16 C 26.817708 15.697917 26.744792 15.395833 26.552083 15.15625 L 26.463542 15.052083 L 16.942708 5.536458 C 16.6875 5.276042 16.34375 5.182292 16 5.182292 Z M 16 19.395833 C 16.088542 19.395833 16.15625 19.421875 16.223958 19.489583 C 16.296875 19.5625 16.322917 19.630208 16.322917 19.71875 C 16.322917 19.807292 16.296875 19.869792 16.223958 19.942708 C 16.15625 20.010417 16.088542 20.036458 16 20.036458 C 15.911458 20.036458 15.84375 20.010417 15.776042 19.942708 C 15.703125 19.869792 15.677083 19.807292 15.677083 19.71875 C 15.677083 19.630208 15.703125 19.5625 15.776042 19.489583 C 15.84375 19.421875 15.911458 19.395833 16 19.395833 Z M 16.166667 11.088542 L 16.166667 17.0625 L 15.833333 17.0625 L 15.833333 11.088542 Z M 16.166667 11.088542 " transform="matrix(0.75,0,0,0.75,0,0)"/>
</g>
</svg>
